# xmcd
#
# Track frame offsets:
# 150
# 15134
# 25990
# 36998
# 49793
# 61179
# 75577
# 88677
# 102248
# 115516
# 131676
# 150216
# 162804
# 176813
# 189140
# 201136
# 216603
# 227279
#
# Disc length: 3235 seconds
#
#
# Revision: 2
# Processed by: cddbd v1.5.2PL0 Copyright (c) Steve Scherf et al.
# Submitted via: FreeRIP 2.96 
#
DISCID=d60ca112
DTITLE=Porter Wagoner - 18 Grand Old Gospel 2005
DYEAR=2005
DGENRE=Gospel
TTITLE0=Satan's Got A River
TTITLE1=Drifting Too Far From The Shore
TTITLE2=Soldiers For The Lord
TTITLE3=In The Sweet Bye And Bye
TTITLE4=Matthew 24
TTITLE5=I Believe
TTITLE6=Where The Soul Never Dies
TTITLE7=When They Ring Them Golden Bells
TTITLE8=How Beautiful Heaven Must Be
TTITLE9=The Bird That Never Flew
TTITLE10=He Took Your Place
TTITLE11=Leaning On THe Everlasting Arms
TTITLE12=I Found A Man
TTITLE13=Where Would John Baptize Jesus
TTITLE14=When I Reach That City On The Hill
TTITLE15=When I Sing For Him
TTITLE16=Washed In The Blood
TTITLE17=Ye Of Little Faith
EXTD=Gusto Records Inc.
EXTT0=
EXTT1=
EXTT2=
EXTT3=
EXTT4=
EXTT5=
EXTT6=
EXTT7=
EXTT8=
EXTT9=
EXTT10=
EXTT11=
EXTT12=
EXTT13=
EXTT14=
EXTT15=
EXTT16=
EXTT17=
PLAYORDER=
